<svg id="visual" viewBox="0 0 900 600" width="900" height="600" xmlns="http://www.w3.org/2000/svg" xmlns:xlink="http://www.w3.org/1999/xlink" version="1.1"><path d="M0 139L82 31L164 73L245 121L327 61L409 97L491 121L573 91L655 121L736 37L818 121L900 169L900 0L818 0L736 0L655 0L573 0L491 0L409 0L327 0L245 0L164 0L82 0L0 0Z" fill="#4facf7"></path><path d="M0 277L82 163L164 145L245 259L327 205L409 235L491 289L573 217L655 229L736 187L818 199L900 217L900 167L818 119L736 35L655 119L573 89L491 119L409 95L327 59L245 119L164 71L82 29L0 137Z" fill="#4080c8"></path><path d="M0 403L82 361L164 391L245 385L327 487L409 289L491 367L573 367L655 469L736 301L818 343L900 283L900 215L818 197L736 185L655 227L573 215L491 287L409 233L327 203L245 257L164 143L82 161L0 275Z" fill="#315799"></path><path d="M0 445L82 475L164 499L245 463L327 541L409 349L491 379L573 469L655 493L736 319L818 397L900 331L900 281L818 341L736 299L655 467L573 365L491 365L409 287L327 485L245 383L164 389L82 359L0 401Z" fill="#21316c"></path><path d="M0 601L82 601L164 601L245 601L327 601L409 601L491 601L573 601L655 601L736 601L818 601L900 601L900 329L818 395L736 317L655 491L573 467L491 377L409 347L327 539L245 461L164 497L82 473L0 443Z" fill="#0e0d40"></path></svg>